#N canvas 1076 225 693 547 10;
#X obj 23 67 oscparse;
#X obj 22 39 netreceive -u -b;
#X obj 26 97 list trim;
#X msg 22 13 listen 9129;
#X obj 380 258 print;
#X obj 34 130 route note bass;
#X obj 41 179 makenote 120 100;
#X obj 51 300 noteout;
#X obj 173 179 makenote 120 100;
#X obj 183 300 noteout;
#X obj 74 225 bng 16 250 50 0 empty empty empty 0 -8 0 10 #fcfcfc #000000 #000000;
#X obj 215 229 bng 16 250 50 0 empty empty empty 0 -8 0 10 #fcfcfc #000000 #000000;
#X msg 256 266 2;
#X msg 115 262 1;
#X connect 0 0 2 0;
#X connect 1 0 0 0;
#X connect 2 0 5 0;
#X connect 3 0 1 0;
#X connect 5 0 6 0;
#X connect 5 1 8 0;
#X connect 6 0 7 0;
#X connect 6 0 10 0;
#X connect 6 1 7 1;
#X connect 8 0 9 0;
#X connect 8 0 4 0;
#X connect 8 0 11 0;
#X connect 8 1 9 1;
#X connect 10 0 13 0;
#X connect 11 0 12 0;
#X connect 12 0 9 2;
#X connect 13 0 7 2;
