#N canvas 1076 225 693 547 10;
#X obj 23 67 oscparse;
#X obj 22 39 netreceive -u -b;
#X obj 26 97 list trim;
#X msg 22 13 listen 9129;
#X obj 280 131 print;
#X obj 41 179 makenote 120 100;
#X obj 51 300 noteout;
#X obj 173 179 makenote 120 100;
#X obj 183 300 noteout;
#X obj 74 225 bng 16 250 50 0 empty empty empty 0 -8 0 10 #fcfcfc #000000 #000000;
#X obj 215 229 bng 16 250 50 0 empty empty empty 0 -8 0 10 #fcfcfc #000000 #000000;
#X msg 256 266 2;
#X msg 115 262 1;
#X obj 34 130 route note bass chord;
#X obj 332 176 makenote 120 100;
#X obj 342 297 noteout;
#X obj 374 226 bng 16 250 50 0 empty empty empty 0 -8 0 10 #fcfcfc #000000 #000000;
#X msg 415 263 3;
#X connect 0 0 2 0;
#X connect 1 0 0 0;
#X connect 2 0 13 0;
#X connect 3 0 1 0;
#X connect 5 0 6 0;
#X connect 5 0 9 0;
#X connect 5 1 6 1;
#X connect 7 0 8 0;
#X connect 7 0 10 0;
#X connect 7 1 8 1;
#X connect 9 0 12 0;
#X connect 10 0 11 0;
#X connect 11 0 8 2;
#X connect 12 0 6 2;
#X connect 13 0 5 0;
#X connect 13 1 7 0;
#X connect 13 2 14 0;
#X connect 13 3 4 0;
#X connect 14 0 15 0;
#X connect 14 0 16 0;
#X connect 14 1 15 1;
#X connect 16 0 17 0;
#X connect 17 0 15 2;
